<?xml version="1.0" encoding="utf-8"?>
<svg width="31px" height="30px" viewBox="0 0 31 30" version="1.1" xmlns:xlink="http://www.w3.org/1999/xlink" xmlns="http://www.w3.org/2000/svg">
  <desc>Created with Lunacy</desc>
  <g id="prio">
    <path d="M0 15C0 6.71573 6.93959 0 15.5 0C24.0604 0 31 6.71573 31 15C31 23.2843 24.0604 30 15.5 30C6.93959 30 0 23.2843 0 15Z" id="Ellipse" fill="#F7C843" stroke="none" />
    <g id="!!" fill="#FFFFFF">
      <path d="M13.0723 18.3623L13.2764 7.29785L11.4287 7.29785L11.6221 18.3623L13.0723 18.3623ZM19.3242 18.3623L19.5283 7.29785L17.6807 7.29785L17.874 18.3623L19.3242 18.3623ZM11.5308 22.5518Q11.8799 22.8955 12.374 22.8955Q12.8574 22.8955 13.2119 22.5518Q13.5664 22.208 13.5664 21.7139Q13.5664 21.2197 13.2119 20.8706Q12.8574 20.5215 12.374 20.5215Q11.8799 20.5215 11.5308 20.8706Q11.1816 21.2197 11.1816 21.7139Q11.1816 22.208 11.5308 22.5518ZM17.7827 22.5518Q18.1318 22.8955 18.626 22.8955Q19.1094 22.8955 19.4639 22.5518Q19.8184 22.208 19.8184 21.7139Q19.8184 21.2197 19.4639 20.8706Q19.1094 20.5215 18.626 20.5215Q18.1318 20.5215 17.7827 20.8706Q17.4336 21.2197 17.4336 21.7139Q17.4336 22.208 17.7827 22.5518Z" />
    </g>
  </g>
</svg>