<?xml version="1.0" encoding="utf-8"?>
<svg width="30px" height="30px" viewBox="0 0 30 30" version="1.1" xmlns:xlink="http://www.w3.org/1999/xlink" xmlns="http://www.w3.org/2000/svg">
  <desc>Created with Lunacy</desc>
  <g id="prio">
    <path d="M0 15C0 6.71573 6.71573 0 15 0C23.2843 0 30 6.71573 30 15C30 23.2843 23.2843 30 15 30C6.71573 30 0 23.2843 0 15Z" id="Ellipse" fill="#E49090" stroke="none" />
    <g id="!!!" fill="#FFFFFF">
      <path d="M9.65039 7.29785L9.44629 18.3623L7.99609 18.3623L7.80273 7.29785L9.65039 7.29785ZM15.9023 7.29785L15.6982 18.3623L14.248 18.3623L14.0547 7.29785L15.9023 7.29785ZM21.9502 18.3623L22.1543 7.29785L20.3066 7.29785L20.5 18.3623L21.9502 18.3623ZM8.74805 22.8955Q8.25391 22.8955 7.90479 22.5518Q7.55566 22.208 7.55566 21.7139Q7.55566 21.2197 7.90479 20.8706Q8.25391 20.5215 8.74805 20.5215Q9.23145 20.5215 9.58594 20.8706Q9.94043 21.2197 9.94043 21.7139Q9.94043 22.208 9.58594 22.5518Q9.23145 22.8955 8.74805 22.8955ZM15 22.8955Q14.5059 22.8955 14.1567 22.5518Q13.8076 22.208 13.8076 21.7139Q13.8076 21.2197 14.1567 20.8706Q14.5059 20.5215 15 20.5215Q15.4834 20.5215 15.8379 20.8706Q16.1924 21.2197 16.1924 21.7139Q16.1924 22.208 15.8379 22.5518Q15.4834 22.8955 15 22.8955ZM20.4087 22.5518Q20.7578 22.8955 21.252 22.8955Q21.7354 22.8955 22.0898 22.5518Q22.4443 22.208 22.4443 21.7139Q22.4443 21.2197 22.0898 20.8706Q21.7354 20.5215 21.252 20.5215Q20.7578 20.5215 20.4087 20.8706Q20.0596 21.2197 20.0596 21.7139Q20.0596 22.208 20.4087 22.5518Z" />
    </g>
  </g>
</svg>