<?xml version="1.0" encoding="utf-8"?>
<svg width="30px" height="30px" viewBox="0 0 30 30" version="1.1" xmlns:xlink="http://www.w3.org/1999/xlink" xmlns="http://www.w3.org/2000/svg">
  <desc>Created with Lunacy</desc>
  <g id="prio">
    <path d="M0 15C0 6.71573 6.71573 0 15 0C23.2843 0 30 6.71573 30 15C30 23.2843 23.2843 30 15 30C6.71573 30 0 23.2843 0 15Z" id="Ellipse" fill="#8DC582" stroke="none" />
    <g id="!" fill="#FFFFFF">
      <path d="M15.9023 7.29785L15.6982 18.3623L14.248 18.3623L14.0547 7.29785L15.9023 7.29785ZM15 22.8955Q14.5059 22.8955 14.1567 22.5518Q13.8076 22.208 13.8076 21.7139Q13.8076 21.2197 14.1567 20.8706Q14.5059 20.5215 15 20.5215Q15.4834 20.5215 15.8379 20.8706Q16.1924 21.2197 16.1924 21.7139Q16.1924 22.208 15.8379 22.5518Q15.4834 22.8955 15 22.8955Z" />
    </g>
  </g>
</svg>